<?xml version="1.0" encoding="utf-8"?>
<!-- Generator: Adobe Illustrator 21.1.0, SVG Export Plug-In . SVG Version: 6.00 Build 0)  -->
<svg version="1.1" id="Layer_1" xmlns="http://www.w3.org/2000/svg" xmlns:xlink="http://www.w3.org/1999/xlink" x="0px" y="0px"
	 viewBox="0 0 841.9 595.3" style="enable-background:new 0 0 841.9 595.3;" xml:space="preserve">
<style type="text/css">
	.st0{fill:url(#SVGID_1_);}
	.st1{opacity:0.7;fill:url(#SVGID_2_);}
	.st2{opacity:0.7;fill:url(#SVGID_3_);}
	.st3{opacity:0.7;fill:url(#SVGID_4_);}
	.st4{opacity:0.7;fill:url(#SVGID_5_);}
	.st5{opacity:0.7;fill:url(#SVGID_6_);}
	.st6{opacity:0.7;fill:url(#SVGID_7_);}
	.st7{opacity:0.7;fill:url(#SVGID_8_);}
	.st8{opacity:0.7;fill:url(#SVGID_9_);}
	.st9{opacity:0.7;fill:url(#SVGID_10_);}
	.st10{opacity:0.7;fill:url(#SVGID_11_);}
	.st11{opacity:0.28;fill:url(#SVGID_12_);}
	.st12{fill:url(#SVGID_13_);}
	.st13{fill:url(#SVGID_14_);}
	.st14{fill:url(#SVGID_15_);}
</style>
<linearGradient id="SVGID_1_" gradientUnits="userSpaceOnUse" x1="420.6278" y1="304.3896" x2="420.6278" y2="287.8524">
	<stop  offset="0" style="stop-color:#000000"/>
	<stop  offset="0.6032" style="stop-color:#000000"/>
	<stop  offset="0.6994" style="stop-color:#000000"/>
	<stop  offset="0.7407" style="stop-color:#000000"/>
	<stop  offset="1" style="stop-color:#000000"/>
</linearGradient>
<path class="st0" d="M395.7,293.4c-1.4-0.7-2.4-1.2-2.4-2.4c0-1,0.8-1.7,2.4-1.7c1.1,0,1.9,0.4,2.3,1.1v-1.7h-0.4
	c-0.1,0-0.2,0-0.3,0c-0.3,0-1-0.1-1.9-0.1c-2.3,0-3.6,1.2-3.6,2.8c0,1.7,1.4,2.3,3.2,3.2c1.2,0.6,1.9,1.3,1.9,2.3c0,1.1-0.9,2-2.3,2
	c-1.4,0-2.5-0.6-3.1-1.7v1.8c1.1,0.4,2.1,0.6,3.1,0.6c2.3,0,4-1.5,4-3.2C398.4,295.2,397.5,294.3,395.7,293.4z M402.6,299l0.1-0.7
	c-0.3,0.3-0.6,0.5-1,0.5c-0.7,0-0.9-0.5-0.9-1.6v-0.1l0.1-4.4h0.1c0.9,0,1.4-0.2,1.4-0.5c0-0.1,0-0.1-0.1-0.1h-1.4l0.1-2.4l-1.3,0.4
	l0,2.1l-0.9,0.1v0.5l0.8,0l-0.1,4.8v0.1c0,1.4,0.5,2.1,1.5,2.1C401.6,299.7,402.2,299.5,402.6,299z M408.2,292.7
	c0,0.6-0.5,2.5-1.7,5.7c-1.3-4.3-1.7-6.4-2.2-6.4h-0.2l-1.2,0.1c0.3,0.1,0.6,0.9,1.1,2.2c1.1,3.2,1.5,5.1,1.5,5.3
	c0,0.6-0.4,1.8-1.4,3c-0.6,0.7-1.1,0.7-2.1,0.7c-0.2,0-0.5,0-0.8,0c-0.6,0-0.9,0-0.9,0.3c0,0.4,0.6,0.8,1.5,0.8
	c2.2,0,3.6-2.2,5.4-6.5c1.2-2.9,1.8-4.9,2.6-5.8h-1.8C408.2,292.3,408.2,292.5,408.2,292.7z M411.7,297.4v-1.3c0-4.8,0-7.5,0.1-8.2
	l-1.7,0.3c0.3,0.2,0.4,1.2,0.4,3.1v2.6c0,1.2,0,2.3,0,3.1c0,1.5-0.1,2.4-0.4,2.6h2C411.7,299.3,411.7,298.6,411.7,297.4z
	 M415.6,294.7c2.3,0,3.1,0,3.1-0.6c0-1.2-1.1-2.2-2.7-2.2c-2.2,0-3.6,1.5-3.6,3.9c0,2.4,1.4,3.9,3.4,3.9c1.6,0,2.8-1,2.8-1.8v-0.2
	c-0.7,0.6-1.4,1-2.2,1c-1.5,0-2.6-1.1-2.6-3c0-0.3,0-0.6,0.1-0.9C414.5,294.7,415.1,294.7,415.6,294.7z M415.9,292.5
	c0.8,0,1.4,0.6,1.4,1.2c0,0.5-0.5,0.6-1.7,0.6h-0.2c-0.6,0-1,0-1.2,0H414C414.2,293.2,414.9,292.5,415.9,292.5z M425.2,293.4
	c-1.4-0.7-2.4-1.2-2.4-2.4c0-1,0.8-1.7,2.4-1.7c1.1,0,1.9,0.4,2.3,1.1v-1.7H427c-0.1,0-0.2,0-0.3,0c-0.3,0-1-0.1-1.9-0.1
	c-2.3,0-3.6,1.2-3.6,2.8c0,1.7,1.4,2.3,3.2,3.2c1.2,0.6,1.9,1.3,1.9,2.3c0,1.1-0.9,2-2.3,2c-1.4,0-2.5-0.6-3.1-1.7v1.8
	c1.1,0.4,2.1,0.6,3.1,0.6c2.3,0,4-1.5,4-3.2C427.9,295.2,427,294.3,425.2,293.4z M429.8,297.2v-0.1l0.1-4.4h0.1
	c0.9,0,1.4-0.2,1.4-0.5c0-0.1,0-0.1-0.1-0.1h-1.4l0.1-2.4l-1.3,0.4l0,2.1l-0.9,0.1v0.5l0.8,0l-0.1,4.8v0.1c0,1.4,0.5,2.1,1.5,2.1
	c0.6,0,1.2-0.3,1.7-0.7l0.1-0.7c-0.3,0.3-0.6,0.5-1,0.5C430.1,298.7,429.8,298.2,429.8,297.2z M435.6,291.9c-2.3,0-3.9,1.5-3.9,4.1
	c0,2.4,1.3,3.8,3.6,3.8c2.3,0,3.9-1.6,3.9-4.3C439.1,293.2,437.8,291.9,435.6,291.9z M435.6,299.1c-1.5,0-2.6-1.2-2.6-3.5
	c0-2,0.8-3.1,2.2-3.1c1.4,0,2.4,1.3,2.4,3.3C437.7,298,437,299.1,435.6,299.1z M443.8,292.5c0-0.4-0.3-0.6-0.9-0.6
	c-0.8,0-1.3,0.4-1.9,1.2c0-0.7,0-1-0.3-1c-0.1,0-0.5,0.1-1.3,0.2c0.3,0.2,0.4,1.2,0.4,3v2.1c0,1.2,0,1.9-0.4,2.1h2
	c-0.3-0.2-0.4-0.8-0.4-1.8c0-0.8,0-1.5,0-2.1c0-2,0.1-2.6,1.2-2.6c0.3,0,0.6,0,0.9,0C443.6,293,443.8,292.8,443.8,292.5z M445,295.7
	c0-0.3,0-0.6,0.1-0.9c0.6,0,1.2,0,1.7,0c2.3,0,3.1,0,3.1-0.6c0-1.2-1.1-2.2-2.7-2.2c-2.2,0-3.6,1.5-3.6,3.9c0,2.4,1.4,3.9,3.4,3.9
	c1.6,0,2.8-1,2.8-1.8v-0.2c-0.7,0.6-1.4,1-2.2,1C446,298.7,445,297.6,445,295.7z M447,292.5c0.8,0,1.4,0.6,1.4,1.2
	c0,0.5-0.5,0.6-1.7,0.6h-0.2c-0.6,0-1,0-1.2,0h-0.2C445.3,293.2,446.1,292.5,447,292.5z"/>
<radialGradient id="SVGID_2_" cx="286.8127" cy="545.1536" r="125.0075" gradientTransform="matrix(3.266425e-02 0 0 6.411491e-03 385.078 296.2127)" gradientUnits="userSpaceOnUse">
	<stop  offset="0" style="stop-color:#000000"/>
	<stop  offset="1" style="stop-color:#000000;stop-opacity:0"/>
</radialGradient>
<ellipse class="st1" cx="394.4" cy="299.7" rx="4.1" ry="0.8"/>
<radialGradient id="SVGID_3_" cx="405.9815" cy="299.708" r="1.1073" gradientTransform="matrix(1.076214e-02 0 0 6.411491e-03 396.4964 296.2127)" gradientUnits="userSpaceOnUse">
	<stop  offset="0" style="stop-color:#000000"/>
	<stop  offset="1" style="stop-color:#000000;stop-opacity:0"/>
</radialGradient>
<ellipse class="st2" cx="406" cy="299.7" rx="1.3" ry="0.8"/>
<radialGradient id="SVGID_4_" cx="411.0668" cy="299.5553" r="1.4015" gradientTransform="matrix(1.450600e-02 0 0 6.411491e-03 393.1287 296.2127)" gradientUnits="userSpaceOnUse">
	<stop  offset="0" style="stop-color:#000000"/>
	<stop  offset="1" style="stop-color:#000000;stop-opacity:0"/>
</radialGradient>
<ellipse class="st3" cx="411.1" cy="299.6" rx="1.8" ry="0.8"/>
<radialGradient id="SVGID_5_" cx="440.491" cy="299.5553" r="1.4015" gradientTransform="matrix(1.450600e-02 0 0 6.411491e-03 393.1287 296.2127)" gradientUnits="userSpaceOnUse">
	<stop  offset="0" style="stop-color:#000000"/>
	<stop  offset="1" style="stop-color:#000000;stop-opacity:0"/>
</radialGradient>
<ellipse class="st4" cx="440.5" cy="299.6" rx="1.8" ry="0.8"/>
<radialGradient id="SVGID_6_" cx="644.2253" cy="521.3322" r="125.0142" gradientTransform="matrix(1.709349e-02 0 0 6.411491e-03 389.8937 296.2127)" gradientUnits="userSpaceOnUse">
	<stop  offset="0" style="stop-color:#000000"/>
	<stop  offset="1" style="stop-color:#000000;stop-opacity:0"/>
</radialGradient>
<ellipse class="st5" cx="400.9" cy="299.6" rx="2.1" ry="0.8"/>
<radialGradient id="SVGID_7_" cx="2341.4573" cy="521.3322" r="125.0151" gradientTransform="matrix(1.709349e-02 0 0 6.411491e-03 389.8937 296.2127)" gradientUnits="userSpaceOnUse">
	<stop  offset="0" style="stop-color:#000000"/>
	<stop  offset="1" style="stop-color:#000000;stop-opacity:0"/>
</radialGradient>
<ellipse class="st6" cx="429.9" cy="299.6" rx="2.1" ry="0.8"/>
<radialGradient id="SVGID_8_" cx="1505.6815" cy="539.1893" r="124.9886" gradientTransform="matrix(2.137545e-02 0 0 6.411491e-03 383.5381 296.2127)" gradientUnits="userSpaceOnUse">
	<stop  offset="0" style="stop-color:#000000"/>
	<stop  offset="1" style="stop-color:#000000;stop-opacity:0"/>
</radialGradient>
<ellipse class="st7" cx="415.7" cy="299.7" rx="2.7" ry="0.8"/>
<radialGradient id="SVGID_9_" cx="2416.2346" cy="539.1893" r="124.9893" gradientTransform="matrix(2.137545e-02 0 0 6.411491e-03 383.5381 296.2127)" gradientUnits="userSpaceOnUse">
	<stop  offset="0" style="stop-color:#000000"/>
	<stop  offset="1" style="stop-color:#000000;stop-opacity:0"/>
</radialGradient>
<ellipse class="st8" cx="435.2" cy="299.7" rx="2.7" ry="0.8"/>
<radialGradient id="SVGID_10_" cx="2969.7053" cy="539.1893" r="124.9893" gradientTransform="matrix(2.137545e-02 0 0 6.411491e-03 383.5381 296.2127)" gradientUnits="userSpaceOnUse">
	<stop  offset="0" style="stop-color:#000000"/>
	<stop  offset="1" style="stop-color:#000000;stop-opacity:0"/>
</radialGradient>
<ellipse class="st9" cx="447" cy="299.7" rx="2.7" ry="0.8"/>
<radialGradient id="SVGID_11_" cx="1888.6476" cy="539.1893" r="124.9879" gradientTransform="matrix(2.137545e-02 0 0 6.411491e-03 383.5381 296.2127)" gradientUnits="userSpaceOnUse">
	<stop  offset="0" style="stop-color:#000000"/>
	<stop  offset="1" style="stop-color:#000000;stop-opacity:0"/>
</radialGradient>
<ellipse class="st10" cx="423.9" cy="299.7" rx="2.7" ry="0.8"/>
<linearGradient id="SVGID_12_" gradientUnits="userSpaceOnUse" x1="420.6278" y1="299.3343" x2="420.6278" y2="307.2643">
	<stop  offset="0" style="stop-color:#000000"/>
	<stop  offset="1" style="stop-color:#000000;stop-opacity:0"/>
</linearGradient>
<path class="st11" d="M430.1,306.4h-0.1l-0.1-4.4v-0.1c0-1.1,0.2-1.6,0.9-1.6c0.4,0,0.7,0.2,1,0.5l-0.1-0.7c-0.4-0.5-1-0.7-1.7-0.7
	c-1,0-1.5,0.7-1.5,2.1v0.1l0.1,4.8l-0.8,0v0.5l0.9,0.1l0,0.3h1.3l0-0.3h1.4c0.1,0,0.1,0,0.1-0.1C431.5,306.6,431,306.4,430.1,306.4z
	 M435.2,299.3c-2.3,0-3.6,1.4-3.6,3.8c0,2.5,1.7,4.1,3.9,4.1c2.2,0,3.5-1.3,3.5-3.5C439.1,301,437.6,299.3,435.2,299.3z
	 M435.3,306.6c-1.4,0-2.2-1-2.2-3.1c0-2.2,1-3.5,2.6-3.5c1.4,0,2.1,1.1,2.1,3.3C437.7,305.2,436.7,306.6,435.3,306.6z M443.1,306
	c-0.3,0-0.6,0-0.9,0c-1,0-1.2-0.6-1.2-2.6c0-0.6,0-1.3,0-2.1c0-1,0.1-1.6,0.4-1.8h-2c0.3,0.2,0.4,0.9,0.4,2.1v2.1c0,1.8,0,2.8-0.4,3
	c0.8,0.1,1.2,0.2,1.3,0.2c0.3,0,0.3-0.3,0.3-1c0.5,0.8,1.1,1.2,1.9,1.2c0.6,0,0.9-0.3,0.9-0.6C443.8,306.2,443.6,306,443.1,306z
	 M446.8,304.3c-0.5,0-1.1,0-1.7,0c-0.1-0.3-0.1-0.6-0.1-0.9c0-1.9,1-3,2.6-3c0.9,0,1.6,0.3,2.2,1v-0.2c0-0.8-1.2-1.8-2.8-1.8
	c-2.1,0-3.4,1.5-3.4,3.9c0,2.5,1.5,3.9,3.6,3.9c1.7,0,2.7-1,2.7-2.2C449.9,304.3,449.1,304.3,446.8,304.3z M447,306.6
	c-0.9,0-1.7-0.7-1.8-1.8h0.2c0.2,0,0.6,0,1.2,0h0.2c1.2,0,1.7,0,1.7,0.6C448.5,306,447.9,306.6,447,306.6z M406.5,299.3h-0.9
	c0,0,0,0.1,0,0.1c0,0.2-0.4,2.1-1.5,5.3c-0.5,1.3-0.8,2-1.1,2.2l1.2,0.1h0.2c0.5,0,0.9-2.1,2.2-6.4c1.2,3.2,1.7,5.1,1.7,5.7
	c0,0.2-0.1,0.4-0.2,0.6h1.8c-0.8-0.8-1.4-2.9-2.6-5.8C407,300.5,406.7,299.9,406.5,299.3z M401.6,300.3c0.4,0,0.7,0.2,1,0.5
	l-0.1-0.7c-0.4-0.5-1-0.7-1.7-0.7c-1,0-1.5,0.7-1.5,2.1v0.1l0.1,4.8l-0.8,0v0.5l0.9,0.1l0,0.3h1.3l0-0.3h1.4c0.1,0,0.1,0,0.1-0.1
	c0-0.3-0.5-0.5-1.4-0.5h-0.1l-0.1-4.4v-0.1C400.7,300.8,400.9,300.3,401.6,300.3z M423.9,299.3c-1,0-2,0.2-3.1,0.6v1.8
	c0.7-1.1,1.8-1.7,3.1-1.7c1.4,0,2.3,0.9,2.3,2c0,1-0.6,1.6-1.9,2.3c-1.7,0.9-3,1.5-3.2,2.9h1.7c0.4-0.7,1.2-1.1,2.3-1.6
	c1.8-0.9,2.7-1.8,2.7-3.1C427.9,300.9,426.2,299.3,423.9,299.3z M394.4,299.3c-1,0-2,0.2-3.1,0.6v1.8c0.7-1.1,1.8-1.7,3.1-1.7
	c1.4,0,2.3,0.9,2.3,2c0,1-0.6,1.6-1.9,2.3c-1.7,0.9-3,1.5-3.2,2.9h1.7c0.4-0.7,1.2-1.1,2.3-1.6c1.8-0.9,2.7-1.8,2.7-3.1
	C398.4,300.9,396.8,299.3,394.4,299.3z M410.5,302.1c0,0.8,0,1.9,0,3.1v2h1.3c0-1.2,0-2.6,0-4.3v-1.3c0-1.2,0-1.9,0.4-2.1h-2
	C410.4,299.7,410.5,300.6,410.5,302.1z M415.6,304.3c-0.5,0-1.1,0-1.7,0c-0.1-0.3-0.1-0.6-0.1-0.9c0-1.9,1-3,2.6-3
	c0.9,0,1.6,0.3,2.2,1v-0.2c0-0.8-1.2-1.8-2.8-1.8c-2.1,0-3.4,1.5-3.4,3.9c0,2.5,1.5,3.9,3.6,3.9c1.7,0,2.7-1,2.7-2.2
	C418.7,304.3,417.9,304.3,415.6,304.3z M415.9,306.6c-0.9,0-1.7-0.7-1.8-1.8h0.2c0.2,0,0.6,0,1.2,0h0.2c1.2,0,1.7,0,1.7,0.6
	C417.3,306,416.7,306.6,415.9,306.6z"/>
<g>
	<g>
		<path d="M435.4,305.5c0.2-0.2,0.2-0.7,0.2-1.8v-0.3c0-1.1,0-1.7-0.2-1.9h0.6c0.4,0,0.8,0,1.2,0c0.7,0,1,0.3,1,0.7
			c0,0.4-0.4,0.8-1.1,1c0.8,0.1,1.3,0.5,1.3,1.1c0,0.7-0.6,1.2-1.7,1.2c-0.3,0-0.7,0-1,0H435.4z M436.2,303.2h0.2
			c0.8,0,1.3-0.3,1.3-0.8c0-0.4-0.3-0.6-1-0.6c-0.1,0-0.3,0-0.4,0c0,0.2-0.1,0.6-0.1,1.2v0.1V303.2z M436.2,304.2
			c0,0.5,0,0.9,0.1,0.9c0,0.1,0.2,0.2,0.5,0.2c0.6,0,1-0.3,1-0.9c0-0.6-0.4-0.9-1.2-0.9h-0.4V304.2z"/>
		<path d="M439.4,304.7v-0.8c0-0.7,0-1-0.1-1.1c0.3,0,0.5-0.1,0.5-0.1c0.1,0,0.1,0.1,0.1,0.4c0.2-0.3,0.4-0.4,0.7-0.4
			c0.2,0,0.4,0.1,0.4,0.2c0,0.1-0.1,0.2-0.3,0.2c-0.1,0-0.2,0-0.4,0c-0.4,0-0.5,0.2-0.5,1c0,0.2,0,0.5,0,0.8c0,0.4,0,0.6,0.1,0.7
			h-0.8C439.4,305.4,439.4,305.2,439.4,304.7z"/>
		<path d="M443.2,305.1c-0.2,0.3-0.5,0.5-0.9,0.5c-0.5,0-0.9-0.3-0.9-0.6c0-0.4,0.4-0.6,1.1-0.9c0.5-0.2,0.6-0.3,0.6-0.6
			c0-0.4-0.2-0.6-0.6-0.6c-0.2,0-0.3,0.1-0.4,0.2c-0.1,0.1-0.1,0.4-0.4,0.4c-0.1,0-0.3-0.1-0.3-0.2c0-0.3,0.4-0.5,1.3-0.5
			c0.6,0,0.8,0.2,0.8,0.6c0,0.2,0,0.6,0,1.2c0,0.6,0.1,0.9,0.2,1l-0.6,0C443.2,305.4,443.2,305.3,443.2,305.1z M442,304.8
			c0,0.2,0.2,0.4,0.5,0.4c0.4,0,0.6-0.2,0.6-0.8V304C442.5,304.3,442,304.5,442,304.8z"/>
		<path d="M445.1,305.3h0.8c0.6,0,1.1,0,1.4-0.4l-0.1,0.6h-2.8l2.1-2.6h-0.6c-0.6,0-1,0.1-1.2,0.4l0.1-0.6h2.4L445.1,305.3z"/>
		<path d="M447.9,301.9l0.5-0.3l0.3,0.4l-0.5,0.3L447.9,301.9z M448.1,304.7v-0.9c0-0.6,0-1-0.1-1c0.2,0,0.5,0,0.7-0.1
			c0,0.2,0,0.8,0,1.7v0.4c0,0.4,0,0.7,0.1,0.8h-0.8C448,305.4,448.1,305.2,448.1,304.7z"/>
		<path d="M449.7,304.6c0-0.3,0-0.7,0-1.2v-1c0-0.7,0-1.1-0.1-1.1l0.7-0.1c0,0.3,0,1.3,0,3.1v0.5c0,0.4,0,0.7,0.1,0.8h-0.8
			C449.7,305.4,449.7,305.1,449.7,304.6z"/>
	</g>
	<g>
		<linearGradient id="SVGID_13_" gradientUnits="userSpaceOnUse" x1="431.1268" y1="305.6384" x2="431.1268" y2="301.5499">
			<stop  offset="0" style="stop-color:#50B848"/>
			<stop  offset="1" style="stop-color:#198942"/>
		</linearGradient>
		<path class="st12" d="M434.2,301.5h-6.1c-0.2,0-0.3,0.1-0.3,0.3v3.5c0,0.2,0.1,0.3,0.3,0.3h6.1c0.2,0,0.3-0.1,0.3-0.3v-3.5
			C434.5,301.7,434.4,301.5,434.2,301.5z"/>
		<linearGradient id="SVGID_14_" gradientUnits="userSpaceOnUse" x1="431.1675" y1="305.6384" x2="431.1675" y2="301.5499">
			<stop  offset="0" style="stop-color:#FFF200"/>
			<stop  offset="1" style="stop-color:#FDB913"/>
		</linearGradient>
		<path class="st13" d="M428.1,305.6h6.1c0.2,0,0.3-0.1,0.3-0.3v-3.5c0-0.2-0.1-0.3-0.3-0.3H434l-6.2,4
			C427.9,305.6,428,305.6,428.1,305.6z"/>
		<linearGradient id="SVGID_15_" gradientUnits="userSpaceOnUse" x1="433.0499" y1="305.6384" x2="433.0499" y2="302.7794">
			<stop  offset="0" style="stop-color:#005BAA"/>
			<stop  offset="1" style="stop-color:#002E6E"/>
		</linearGradient>
		<path class="st14" d="M431.6,305.6h2.6c0.2,0,0.3-0.1,0.3-0.3v-2.6C432.9,302.8,431.7,304.1,431.6,305.6z"/>
	</g>
</g>
</svg>
